:SAMPLES-PER-SECOND 30
:FULLY-SPECIFIED
:DEGREES
394
root  30.153 34.3275 12.0903 -172.513 25.2518 179.03
LeftUpLeg  -11.3732 13.4424 0.024411
LeftLeg  11.7707 11.8463 1.66985
LeftFoot  1.67847 -0.00820374 0.33976
LeftToes  -16.3041 2.48695e-006 -1.03773e-007
Spine  1.99734 0.70173 -1.72168
Spine1  3.7581 1.33961 -3.1523
RightShoulder  0.0314728 6.11454 5.84667
RightArm  -22.1665 -9.36972 78.3424
RightForeArm  30.9755 18.095 3.29616
RightHand  0.219627 -4.98201 -4.49982
LeftShoulder1  0.0559032 -0.201643 -9.79303
LeftArm  -10.3663 7.78221 -68.9739
LeftForeArm  32.3812 -17.4437 -3.16711
LeftHand  0.0944289 2.92718 3.23611
HEad  -12.7066 -39.327 6.54645
RightUpLeg  -9.11901 -4.25529 -6.88266
RightLeg  9.59465 11.6324 1.19974
RightFoot  1.50257 -0.000545235 0.340943
RightToes  -32.4207 -0.161212 -0.265048
395
root  30.1763 34.3163 12.1059 -172.57 25.239 179.028
LeftUpLeg  -11.4082 13.3346 0.0894249
LeftLeg  11.9643 11.9286 1.72207
LeftFoot  1.61947 -0.00738395 0.331308
LeftToes  -16.4062 2.48695e-006 -1.03773e-007
Spine  1.98381 0.603174 -1.68254
Spine1  3.73311 1.13149 -3.05082
RightShoulder  0.0309581 6.10924 5.85483
RightArm  -23.1846 -9.98565 78.1986
RightForeArm  31.3823 17.5003 3.18023
RightHand  0.223546 -5.00291 -4.64034
LeftShoulder1  0.057332 -0.23435 -9.7713
LeftArm  -11.2752 8.04294 -68.4114
LeftForeArm  32.9556 -16.6794 -3.01938
LeftHand  0.0974523 3.04277 3.2905
HEad  -12.7308 -39.1424 6.56191
RightUpLeg  -9.21998 -4.2512 -6.84076
RightLeg  9.93602 11.6265 1.26868
RightFoot  1.2849 0.000868834 0.299901
RightToes  -32.3182 -0.160739 -0.264786
396
root  30.2002 34.304 12.1233 -172.63 25.3027 179.026
LeftUpLeg  -11.472 13.2378 0.154322
LeftLeg  12.248 12.0707 1.80283
LeftFoot  1.51383 -0.00602 0.314903
LeftToes  -16.4657 2.48695e-006 -1.03773e-007
Spine  1.97962 0.524764 -1.65648
Spine1  3.72494 0.965639 -2.97277
RightShoulder  0.0305821 6.17894 5.8608
RightArm  -24.2647 -10.6306 78.0454
RightForeArm  31.8227 16.788 3.04245
RightHand  0.226587 -5.03339 -4.77553
LeftShoulder1  0.060519 -0.27823 -9.7878
LeftArm  -12.3639 8.29007 -67.7835
LeftForeArm  33.6816 -15.7502 -2.84138
LeftHand  0.102138 3.04188 3.46746
HEad  -12.9134 -38.838 6.69666
RightUpLeg  -9.35486 -4.13978 -6.80321
RightLeg  10.3203 11.5824 1.34201
RightFoot  1.05148 0.0011158 0.255778
RightToes  -32.1429 -0.160211 -0.264539
397
root  30.2204 34.2914 12.145 -172.684 25.4078 179.047
LeftUpLeg  -11.5376 13.3293 0.221925
LeftLeg  12.5061 12.0935 1.86144
LeftFoot  1.41804 -0.00453858 0.297367
LeftToes  -16.515 2.48695e-006 -1.03773e-007
Spine  1.98953 0.4687 -1.63254
Spine1  3.74491 0.847689 -2.90018
RightShoulder  0.0303812 6.29989 5.85799
RightArm  -25.534 -11.2784 77.8887
RightForeArm  32.4839 15.9904 2.88928
RightHand  0.228946 -4.96657 -4.89887
LeftShoulder1  0.0620538 -0.358236 -9.84363
LeftArm  -13.7034 8.53368 -67.1222
LeftForeArm  34.5501 -14.7464 -2.65087
LeftHand  0.115048 3.17893 3.76615
HEad  -13.185 -38.5473 6.851
RightUpLeg  -9.48796 -4.08377 -6.74979
RightLeg  10.6682 11.6475 1.42063
RightFoot  0.855605 0.00113791 0.22177
RightToes  -32.0152 -0.159622 -0.264311
398
root  30.2404 34.2808 12.1648 -172.771 25.5808 179.049
LeftUpLeg  -11.5419 13.3622 0.289384
LeftLeg  12.7355 12.2038 1.92778
LeftFoot  1.34303 -0.0034472 0.286777
LeftToes  -16.5591 2.48695e-006 -1.03773e-007
Spine  2.00829 0.464693 -1.62722
Spine1  3.78296 0.83849 -2.86842
RightShoulder  0.0304102 6.40194 5.8368
RightArm  -26.7748 -11.8929 77.7603
RightForeArm  33.0889 15.1149 2.7227
RightHand  0.240053 -5.07751 -5.03355
LeftShoulder1  0.0630534 -0.47157 -9.84367
LeftArm  -15.0474 8.78725 -66.4958
LeftForeArm  35.2774 -13.7587 -2.46529
LeftHand  0.129065 3.30952 4.08682
HEad  -13.3403 -38.3446 6.91523
RightUpLeg  -9.59337 -4.04155 -6.71327
RightLeg  10.9855 11.7733 1.50146
RightFoot  0.688742 0.000902545 0.194068
RightToes  -31.94 -0.158967 -0.264103
399
root  30.2561 34.2714 12.1983 -172.859 25.7541 179.044
LeftUpLeg  -11.5773 13.4022 0.348134
LeftLeg  12.964 12.3308 1.99751
LeftFoot  1.28661 -0.00256628 0.280534
LeftToes  -16.6152 2.48695e-006 -1.03773e-007
Spine  2.02071 0.4662 -1.62264
Spine1  3.81207 0.837923 -2.84556
RightShoulder  0.0306879 6.54419 5.83363
RightArm  -28.0474 -12.478 77.6162
RightForeArm  33.7722 14.2402 2.55764
RightHand  0.248146 -5.09566 -5.19557
LeftShoulder1  0.0636062 -0.503528 -9.86263
LeftArm  -16.4726 9.01305 -65.9178
LeftForeArm  36.008 -12.8442 -2.29486
LeftHand  0.143487 3.42154 4.42239
HEad  -13.3518 -38.2176 6.87262
RightUpLeg  -9.71713 -3.94733 -6.67287
RightLeg  11.2876 11.8483 1.57391
RightFoot  0.526124 0.00106528 0.165057
RightToes  -31.7464 -0.15824 -0.263919
400
root  30.2746 34.2665 12.2323 -172.956 25.912 179.041
LeftUpLeg  -11.5625 13.4443 0.409279
LeftLeg  13.1048 12.4241 2.04345
LeftFoot  1.28381 -0.00229723 0.285066
LeftToes  -16.6489 2.48695e-006 -1.03773e-007
Spine  2.0265 0.469229 -1.61606
Spine1  3.83091 0.853759 -2.82639
RightShoulder  0.0312669 6.64374 5.81522
RightArm  -29.1475 -13.0746 77.4814
RightForeArm  34.4063 13.6486 2.44658
RightHand  0.254859 -5.14067 -5.2959
LeftShoulder1  0.0638011 -0.544902 -9.86206
LeftArm  -17.5987 9.38496 -65.3785
LeftForeArm  36.3628 -12.2455 -2.18409
LeftHand  0.154578 3.50852 4.66464
HEad  -13.3373 -38.2377 6.77417
RightUpLeg  -9.77914 -3.82819 -6.63528
RightLeg  11.4778 11.8918 1.61947
RightFoot  0.434241 0.000864696 0.149122
RightToes  -31.6827 -0.157437 -0.26349
401
root  30.2916 34.2673 12.2664 -173.012 26.0432 179.047
LeftUpLeg  -11.5157 13.3998 0.471463
LeftLeg  13.0774 12.6069 2.06689
LeftFoot  1.38249 -0.00351628 0.314181
LeftToes  -16.7476 2.48695e-006 -1.03773e-007
Spine  2.01684 0.471308 -1.5994
Spine1  3.81982 0.863497 -2.79363
RightShoulder  0.0321785 6.71695 5.80162
RightArm  -30.075 -13.6426 77.3319
RightForeArm  34.8725 13.1883 2.3606
RightHand  0.260948 -5.16866 -5.39969
LeftShoulder1  0.0637267 -0.576007 -9.86051
LeftArm  -18.4321 9.85116 -64.9233
LeftForeArm  36.4383 -11.9255 -2.12521
LeftHand  0.161955 3.57633 4.80483
HEad  -13.2017 -38.3187 6.63331
RightUpLeg  -9.82017 -3.86011 -6.5857
RightLeg  11.5537 12.0705 1.65961
RightFoot  0.414384 0.000827802 0.148381
RightToes  -31.6066 -0.156551 -0.262639
402
root  30.3111 34.2699 12.3029 -173.04 26.1226 179.067
LeftUpLeg  -11.4849 13.449 0.540953
LeftLeg  13.0132 12.6528 2.05987
LeftFoot  1.48088 -0.00438846 0.339554
LeftToes  -16.7863 2.48695e-006 -1.03773e-007
Spine  2.00453 0.455596 -1.57136
Spine1  3.80416 0.838546 -2.74474
RightShoulder  0.0334683 6.74739 5.81352
RightArm  -30.7644 -14.1347 77.1578
RightForeArm  35.2319 12.8915 2.30529
RightHand  0.26255 -5.18753 -5.42817
LeftShoulder1  0.0634716 -0.575312 -9.8321
LeftArm  -18.9069 10.3643 -64.6008
LeftForeArm  36.3582 -11.8547 -2.11228
LeftHand  0.163649 3.60784 4.82399
HEad  -13.1072 -38.3799 6.65639
RightUpLeg  -9.85311 -3.96654 -6.50914
RightLeg  11.5844 12.2514 1.69074
RightFoot  0.423393 0.000134273 0.152611
RightToes  -31.5871 -0.155579 -0.261701
